<?xml version="1.0" encoding="UTF-8" standalone="no"?>
<!-- Created with Inkscape (http://www.inkscape.org/) -->

<svg
   xmlns:dc="http://purl.org/dc/elements/1.1/"
   xmlns:cc="http://creativecommons.org/ns#"
   xmlns:rdf="http://www.w3.org/1999/02/22-rdf-syntax-ns#"
   xmlns:svg="http://www.w3.org/2000/svg"
   xmlns="http://www.w3.org/2000/svg"
   xmlns:sodipodi="http://sodipodi.sourceforge.net/DTD/sodipodi-0.dtd"
   xmlns:inkscape="http://www.inkscape.org/namespaces/inkscape"
   width="914.40997"
   height="510"
   id="svg83611"
   version="1.1"
   inkscape:version="0.48.1 "
   sodipodi:docname="Neues Dokument 3">
  <defs
     id="defs83613">
    <clipPath
       clipPathUnits="userSpaceOnUse"
       id="clipPath1400">
      <path
         inkscape:connector-curvature="0"
         d="m 0,0 652.032,0 0,510.264 L 0,510.264 0,0 z"
         id="path1402" />
    </clipPath>
  </defs>
  <sodipodi:namedview
     id="base"
     pagecolor="#ffffff"
     bordercolor="#666666"
     borderopacity="1.0"
     inkscape:pageopacity="0.0"
     inkscape:pageshadow="2"
     inkscape:zoom="1.546"
     inkscape:cx="457.20503"
     inkscape:cy="255"
     inkscape:document-units="px"
     inkscape:current-layer="layer1"
     showgrid="false"
     fit-margin-top="0"
     fit-margin-left="0"
     fit-margin-right="0"
     fit-margin-bottom="0"
     inkscape:window-width="1680"
     inkscape:window-height="990"
     inkscape:window-x="-4"
     inkscape:window-y="-4"
     inkscape:window-maximized="1" />
  <metadata
     id="metadata83616">
    <rdf:RDF>
      <cc:Work
         rdf:about="">
        <dc:format>image/svg+xml</dc:format>
        <dc:type
           rdf:resource="http://purl.org/dc/dcmitype/StillImage" />
        <dc:title></dc:title>
      </cc:Work>
    </rdf:RDF>
  </metadata>
  <g
     inkscape:label="Ebene 1"
     inkscape:groupmode="layer"
     id="layer1"
     transform="translate(-254.44192,67.03889)">
    <g
       id="g1316"
       transform="matrix(14.186812,0,0,-14.186812,1114.7794,88.171074)">
      <path
         inkscape:connector-curvature="0"
         d="M 0,0 -4.78,0 C -8.895,6.456 -18.083,10.588 -28.549,10.588 -39.015,10.588 -48.201,6.456 -52.318,0 l -1.918,0 c -1.621,0 -3.008,-1.108 -3.372,-2.695 -0.001,-0.001 -2.592,-11.276 -2.592,-11.276 -0.061,-0.267 -0.091,-0.515 -0.091,-0.786 0,-1.918 1.554,-3.479 3.462,-3.479 l 8.282,0 c 4.976,-4.083 12.219,-6.42 19.998,-6.42 7.78,0 15.023,2.337 19.999,6.42 l 5.957,0 c 1.62,0 3.007,1.108 3.372,2.696 l 2.592,11.28 c 0.061,0.259 0.088,0.509 0.088,0.781 C 3.459,-1.561 1.908,0 0,0"
         style="fill:#000000;fill-opacity:1;fill-rule:nonzero;stroke:none"
         id="path1318" />
    </g>
    <g
       id="g1320"
       transform="matrix(14.186812,0,0,-14.186812,1114.7794,89.552869)">
      <path
         inkscape:connector-curvature="0"
         d="M 0,0 -4.832,0 C -8.917,6.455 -18.091,10.588 -28.549,10.588 -39.007,10.588 -48.18,6.455 -52.265,0 l -1.971,0 c -1.576,0 -2.924,-1.077 -3.28,-2.619 0,-0.002 -2.591,-11.277 -2.591,-11.277 -0.059,-0.259 -0.087,-0.5 -0.087,-0.764 0,-1.864 1.509,-3.381 3.365,-3.381 l 8.316,0 c 4.96,-4.083 12.193,-6.42 19.964,-6.42 7.771,0 15.005,2.337 19.964,6.42 l 5.992,0 c 1.575,0 2.923,1.078 3.278,2.621 l 2.593,11.279 c 0.058,0.252 0.085,0.495 0.085,0.76 C 3.363,-1.517 1.854,0 0,0"
         style="fill:#c41230;fill-opacity:1;fill-rule:nonzero;stroke:none"
         id="path1322" />
    </g>
    <g
       id="g1324"
       transform="matrix(14.186812,0,0,-14.186812,1104.3606,303.59929)">
      <path
         inkscape:connector-curvature="0"
         d="m 0,0 c 0,0 2.558,11.131 2.592,11.278 0.035,0.148 0.049,0.277 0.049,0.429 0,1.053 -0.854,1.907 -1.907,1.907 l -5.637,0 c -3.43,6.176 -12.245,10.589 -22.912,10.589 -10.664,0 -19.479,-4.413 -22.912,-10.589 l -2.775,0 c -0.902,0 -1.657,-0.6 -1.859,-1.48 -0.202,-0.879 -2.558,-11.13 -2.593,-11.278 -0.033,-0.148 -0.048,-0.276 -0.048,-0.428 0,-1.054 0.854,-1.908 1.907,-1.908 l 8.832,0 c 4.496,-3.899 11.386,-6.421 19.448,-6.421 8.063,0 14.953,2.522 19.45,6.421 l 6.506,0 c 0.903,0 1.657,0.601 1.859,1.48 0.202,0.88 0,0 0,0"
         style="fill:#000000;fill-opacity:1;fill-rule:nonzero;stroke:none"
         id="path1326" />
    </g>
    <g
       id="g1328"
       transform="matrix(14.186812,0,0,-14.186812,383.69326,108.559)">
      <path
         inkscape:connector-curvature="0"
         d="m 0,0 -2.703,0 c -0.956,0 -1.774,-0.651 -1.988,-1.583 l -2.593,-11.278 c -0.036,-0.16 -0.052,-0.297 -0.052,-0.459 0,-1.125 0.914,-2.042 2.04,-2.042 l 8.784,0 c 4.731,-4.08 11.831,-6.42 19.496,-6.42 7.664,0 14.766,2.34 19.497,6.42 l 6.458,0 c 0.956,0 1.774,0.652 1.988,1.584 l 2.592,11.279 c 0.036,0.156 0.052,0.294 0.052,0.458 C 53.571,-0.916 52.656,0 51.533,0 L 45.969,0 C 42.345,6.434 33.338,10.588 22.984,10.588 12.631,10.588 3.623,6.434 0,0 m -7.071,-13.32 c 0,0.141 0.013,0.26 0.044,0.398 l 2.593,11.278 c 0.19,0.824 0.885,1.377 1.731,1.377 l 2.852,0 0.038,0.068 c 3.551,6.391 12.5,10.52 22.797,10.52 10.298,0 19.246,-4.129 22.797,-10.52 l 0.039,-0.068 5.713,0 c 0.977,0 1.775,-0.796 1.775,-1.774 0,-0.143 -0.014,-0.262 -0.047,-0.398 l -2.591,-11.278 0,-10e-4 c -0.19,-0.823 -0.885,-1.377 -1.731,-1.377 l -6.556,0 -0.036,-0.032 c -4.682,-4.06 -11.74,-6.387 -19.363,-6.387 -7.622,0 -14.68,2.327 -19.363,6.387 l -0.037,0.032 -8.88,0 c -0.979,0 -1.775,0.796 -1.775,1.775"
         style="fill:#ffffff;fill-opacity:1;fill-rule:nonzero;stroke:none"
         id="path1330" />
    </g>
    <g
       id="g1332"
       transform="matrix(14.186812,0,0,-14.186812,1117.648,133.54481)">
      <path
         inkscape:connector-curvature="0"
         d="m 0,0 c -0.331,0.416 -0.907,0.654 -1.579,0.654 l -9.584,0.001 c -0.913,0 -1.774,-0.56 -1.92,-1.248 0.002,0.005 -2.158,-9.439 -2.158,-9.439 -0.024,-0.106 -0.036,-0.209 -0.036,-0.312 0,-0.282 0.09,-0.547 0.265,-0.769 0.318,-0.406 0.893,-0.639 1.578,-0.64 0,0 4.4,0 5.477,0 0.093,-0.236 0.327,-0.818 0.327,-0.818 l 4.52,-10e-4 c 0,0 -0.267,0.674 -0.34,0.855 0.749,0.13 1.393,0.622 1.518,1.212 -0.001,-0.006 2.183,9.422 2.183,9.422 l 0.002,0.006 C 0.334,-0.691 0.246,-0.308 0,0 m -4.283,-2.839 -1.165,-5.062 -3.66,0 0.302,-0.758 -0.901,-0.012 -0.538,0 c -0.314,0 -0.544,0.174 -0.486,0.413 l 1.241,5.371 c 0.058,0.238 0.41,0.476 0.746,0.476 l 3.994,-10e-4 c 0.315,0 0.526,-0.189 0.467,-0.427"
         style="fill:#c41230;fill-opacity:1;fill-rule:nonzero;stroke:none"
         id="path1334" />
    </g>
    <g
       id="g1336"
       transform="matrix(14.186812,0,0,-14.186812,1056.4546,169.99357)">
      <path
         inkscape:connector-curvature="0"
         d="m 0,0 c -0.124,0.165 -0.337,0.26 -0.582,0.26 l -3.753,0 c -0.43,0 -0.832,-0.286 -0.918,-0.652 -0.002,-0.002 -1.164,-5.156 -1.164,-5.156 -0.036,-0.154 -0.003,-0.31 0.092,-0.439 0.13,-0.169 0.362,-0.159 0.625,-0.159 l 1.313,0 -0.294,0.774 3.628,0 C -0.816,-4.318 0.05,-0.465 0.05,-0.465 0.09,-0.3 0.102,-0.134 0,0 m -1.399,-5.034 -3.82,0 c 0.073,-0.199 0.296,-0.801 0.296,-0.801 l -0.784,0 c -0.153,0 -0.29,0.057 -0.331,0.14 l -0.019,0.036 c 0,0 1.155,5.161 1.155,5.163 0.038,0.161 0.276,0.343 0.538,0.343 l 3.697,-0.001 c 0.124,0 0.228,-0.04 0.278,-0.105 l 0.03,-0.087 0.003,-0.006 -1.043,-4.682 z"
         style="fill:#c41230;fill-opacity:1;fill-rule:nonzero;stroke:none"
         id="path1338" />
    </g>
    <g
       id="g1340"
       transform="matrix(14.186812,0,0,-14.186812,468.69065,249.83695)">
      <path
         inkscape:connector-curvature="0"
         d="M 0,0 C 0,0.001 -0.614,1.423 -0.901,2.09 -0.383,2.293 1.414,3.001 1.414,3.001 2.251,3.322 2.845,3.958 3.001,4.7 3,4.695 3.842,8.42 3.842,8.42 l 0.097,0.435 -4.461,0 -0.656,-2.859 C -1.192,5.927 -1.288,5.8 -1.4,5.761 -1.407,5.758 -4.48,4.558 -5.823,4.034 c 0.226,0.991 1.106,4.822 1.106,4.822 l -4.465,0 -0.063,-0.276 -2.776,-12.129 4.485,-0.002 c 0,0 0.678,2.998 0.752,3.325 0.26,0.102 1.562,0.615 2.006,0.79 0.22,-0.513 1.261,-2.935 1.261,-2.935 0.287,-0.663 1.188,-1.181 2.05,-1.182 l 2.579,0 0.786,3.438 -1.655,0 C 0.129,-0.115 0.018,-0.035 0,0"
         style="fill:#c41230;fill-opacity:1;fill-rule:nonzero;stroke:none"
         id="path1342" />
    </g>
    <g
       id="g1344"
       transform="matrix(14.186812,0,0,-14.186812,915.28592,133.53063)">
      <path
         inkscape:connector-curvature="0"
         d="m 0,0 c -0.333,0.416 -0.908,0.655 -1.58,0.655 l -9.583,0 c -0.903,0 -1.753,-0.56 -1.895,-1.249 0,0.006 -2.131,-9.439 -2.131,-9.439 -0.09,-0.4 -0.007,-0.787 0.231,-1.09 0.316,-0.4 0.886,-0.63 1.561,-0.63 l 9.625,0 c 0.906,0 1.729,0.548 1.875,1.249 -10e-4,-0.006 2.152,9.422 2.152,9.422 l 0,0.006 C 0.337,-0.69 0.246,-0.308 0,0 m -4.253,-2.839 -1.243,-5.388 c -0.057,-0.238 -0.369,-0.444 -0.706,-0.444 l -3.993,0 c -0.315,0 -0.566,0.174 -0.509,0.412 l 1.244,5.373 c 0.058,0.238 0.366,0.475 0.724,0.475 l 4.015,-10e-4 c 0.314,0 0.525,-0.189 0.468,-0.427"
         style="fill:#c41230;fill-opacity:1;fill-rule:nonzero;stroke:none"
         id="path1346" />
    </g>
    <g
       id="g1348"
       transform="matrix(14.186812,0,0,-14.186812,854.42439,169.99357)">
      <path
         inkscape:connector-curvature="0"
         d="m 0,0 c -0.126,0.165 -0.337,0.26 -0.582,0.26 l -3.754,0 c -0.429,0 -0.832,-0.286 -0.919,-0.652 0,-0.002 -1.163,-5.156 -1.163,-5.156 -0.035,-0.154 -0.003,-0.31 0.093,-0.439 0.129,-0.169 0.361,-0.159 0.624,-0.159 l 3.734,0 c 0.424,0 0.772,0.161 0.854,0.509 10e-4,0.003 1.163,5.172 1.163,5.172 C 0.089,-0.3 0.101,-0.134 0,0 M -1.452,-5.483 C -1.487,-5.631 -1.72,-5.796 -1.979,-5.796 l -3.672,0 c -0.153,0 -0.289,0.058 -0.33,0.138 l -0.018,0.036 c 0,0 1.155,5.161 1.155,5.162 0.038,0.161 0.276,0.341 0.537,0.341 l 3.696,0 c 0.124,0 0.227,-0.04 0.277,-0.105 l 0.032,-0.092 c 0,0 -1.15,-5.167 -1.15,-5.167"
         style="fill:#c41230;fill-opacity:1;fill-rule:nonzero;stroke:none"
         id="path1350" />
    </g>
    <g
       id="g1352"
       transform="matrix(14.186812,0,0,-14.186812,713.93954,133.7491)">
      <path
         inkscape:connector-curvature="0"
         d="m 0,0 c -0.33,0.427 -0.915,0.672 -1.601,0.672 l -10.657,-0.001 -0.282,0 -2.83,-12.407 4.462,0 c 0,0 0.604,2.609 0.678,2.93 0.256,0.1 1.492,0.585 1.929,0.758 0.214,-0.496 1.078,-2.507 1.078,-2.507 0.285,-0.663 1.184,-1.181 2.047,-1.181 l 2.968,0.001 0.788,3.437 -2.037,0 c -0.135,0 -0.245,0.08 -0.263,0.114 0,0 -0.461,1.091 -0.703,1.66 0.524,0.205 2.422,0.946 2.422,0.946 0.798,0.304 1.394,0.942 1.554,1.663 -0.001,-0.004 0.674,2.849 0.674,2.849 C 0.32,-0.689 0.239,-0.309 0,0 M -4.279,-2.696 C -4.324,-2.854 -4.45,-3.044 -4.853,-3.203 l -4.896,-1.933 0.625,2.741 4.33,0 c 0.336,0 0.577,-0.094 0.515,-0.301"
         style="fill:#c41230;fill-opacity:1;fill-rule:nonzero;stroke:none"
         id="path1354" />
    </g>
    <g
       id="g1356"
       transform="matrix(14.186812,0,0,-14.186812,643.07641,175.23418)">
      <path
         inkscape:connector-curvature="0"
         d="m 0,0 -4.276,-1.66 c 0.137,0.599 0.406,1.681 0.456,1.899 l 3.805,0 C -0.015,0.239 0.454,0.226 0,0 m 0.613,0.061 c 0,0 0.145,0.558 -0.233,0.558 l -4.541,0 -0.649,-2.903 0.624,0.25 4.799,2.095 z"
         style="fill:#c41230;fill-opacity:1;fill-rule:nonzero;stroke:none"
         id="path1358" />
    </g>
    <g
       id="g1360"
       transform="matrix(14.186812,0,0,-14.186812,513.96371,46.314304)">
      <path
         inkscape:connector-curvature="0"
         d="m 0,0 c -0.104,-0.076 -0.184,-0.282 -0.393,-0.434 -0.065,-0.048 -0.135,-0.088 -0.2,-0.109 0.183,0.558 0.416,1.529 0.167,1.873 -0.074,0.101 -0.254,0.24 -0.503,0.059 -0.634,-0.46 -0.715,-1.777 -0.477,-2.104 0.058,-0.08 0.135,-0.145 0.243,-0.184 -0.064,-0.173 -0.469,-1.085 -0.626,-1.199 -0.045,-0.033 -0.07,-0.014 -0.085,0.007 -0.386,0.532 0.186,2.589 0.07,2.748 -0.043,0.06 -0.247,-0.084 -0.332,-0.146 -0.379,-0.275 -0.312,-0.519 -0.357,-0.773 -0.066,-0.405 -0.417,-2.545 -0.692,-2.825 -0.022,-0.011 -0.063,-0.024 -0.073,-0.01 -0.353,0.486 0.383,2.152 0.098,2.545 -0.129,0.177 -0.612,-0.037 -0.893,-0.241 -0.484,-0.351 -1.009,-1.276 -0.823,-1.532 0.037,-0.052 0.225,-0.118 0.349,-0.027 0.131,0.094 0.051,0.769 0.429,1.044 0.085,0.062 0.21,0.11 0.248,0.058 0.186,-0.257 -0.54,-2.033 -0.088,-2.655 0.069,-0.094 0.372,-0.292 0.601,-0.126 0.241,0.176 0.632,1.134 0.721,1.368 0.079,-0.107 0.46,-0.493 0.746,-0.285 0.151,0.109 0.982,1.808 1.116,2.076 0.093,0.024 0.209,0.083 0.302,0.149 0.189,0.139 0.692,0.6 0.596,0.732 C 0.115,0.047 0.079,0.056 0,0 m -1.018,-0.576 c -0.04,0.029 -0.065,0.064 -0.093,0.101 -0.134,0.185 -0.146,1.328 0.212,1.589 0.06,0.043 0.091,0.013 0.106,-0.008 0.218,-0.299 -0.041,-1.193 -0.225,-1.682"
         style="fill:#6d6e71;fill-opacity:1;fill-rule:nonzero;stroke:none"
         id="path1362" />
    </g>
    <g
       id="g1364"
       transform="matrix(14.186812,0,0,-14.186812,655.28558,24.842621)">
      <path
         inkscape:connector-curvature="0"
         d="M 0,0 C -0.111,-0.015 -0.246,0.017 -0.257,0.085 -0.315,0.489 1.427,2.447 1.388,2.723 1.381,2.775 1.071,2.722 1.007,2.712 0.464,2.635 0.497,2.457 0.329,2.204 L -0.319,1.212 C -0.478,1.242 -0.658,1.247 -0.851,1.218 -1.675,1.101 -2.204,0.569 -2.331,0.121 l 0.063,0.153 c -0.15,-0.18 -0.806,-0.779 -1.137,-0.854 -0.11,-0.026 -0.186,0.019 -0.198,0.069 -0.101,0.44 1.827,3.113 1.8,3.234 C -1.814,2.769 -2.133,2.683 -2.18,2.671 -2.456,2.609 -2.589,2.613 -2.683,2.445 -3.001,1.895 -3.931,0.539 -4.245,-0.272 l 0.044,0.099 C -4.35,-0.373 -4.864,-0.945 -5.204,-1.05 -5.289,-1.076 -5.385,-1.066 -5.4,-1.017 -5.462,-0.816 -4.546,0.234 -4.588,0.369 -4.617,0.459 -5.328,0.247 -5.467,0.204 -5.574,0.17 -5.607,0.084 -5.714,0.049 -5.776,0.031 -5.848,0.04 -5.857,0.073 -5.873,0.122 -5.841,0.182 -5.856,0.231 -5.873,0.284 -5.963,0.306 -6.064,0.274 -6.495,0.139 -6.706,-0.187 -6.64,-0.4 c 0.016,-0.049 0.057,-0.105 0.153,-0.11 -0.018,-0.088 -0.102,-0.284 -0.2,-0.445 L -6.713,-0.991 C -6.826,-1.177 -7.066,-1.386 -7.362,-1.512 -7.4,-1.529 -7.44,-1.537 -7.475,-1.537 c 0.087,0.205 0.091,0.543 0.022,0.706 -0.109,0.255 -0.587,0.219 -1.032,0.028 -0.903,-0.389 -1.269,-1.233 -1.087,-1.66 0.118,-0.276 0.599,-0.331 1.133,-0.102 0.504,0.217 0.741,0.525 0.911,0.846 0.067,0.008 0.137,0.026 0.204,0.055 0.229,0.098 0.433,0.185 0.564,0.345 l 0.03,0.018 c 0.241,0.255 0.419,0.549 0.517,0.805 0.142,0.03 0.254,0.082 0.391,0.126 l 0.065,0.016 0.058,0 c 0.035,-0.111 -0.548,-0.711 -0.453,-1.014 0.048,-0.157 0.372,-0.191 0.649,-0.104 0.418,0.13 0.901,0.606 1.171,0.922 -0.019,-0.091 -0.027,-0.17 -0.013,-0.228 0.04,-0.176 0.249,-0.287 0.602,-0.205 0.458,0.105 1.142,0.645 1.383,0.94 -0.003,-0.04 -0.003,-0.08 0.003,-0.116 0.03,-0.209 0.319,-0.419 0.767,-0.355 0.352,0.051 0.568,0.19 0.791,0.343 0.055,-0.096 0.152,-0.204 0.399,-0.168 0.535,0.076 1.203,0.549 1.432,0.817 L 1.005,0.673 C 0.855,0.522 0.296,0.043 0,0 m -8.304,-1.53 c 0.04,-0.094 0.12,-0.158 0.244,-0.199 -0.034,-0.168 -0.209,-0.435 -0.491,-0.556 -0.223,-0.096 -0.338,-0.01 -0.378,0.084 -0.099,0.229 0.046,0.914 0.565,1.137 0.126,0.054 0.289,0.067 0.318,-0.004 l 0.008,-0.016 C -8.315,-1.216 -8.36,-1.399 -8.304,-1.53 m 7.449,1.868 c -0.108,-0.163 -0.279,-0.5 -0.647,-0.553 -0.143,-0.021 -0.208,0.035 -0.218,0.103 -0.041,0.285 0.335,0.964 0.981,1.056 0.081,0.012 0.196,-0.002 0.204,-0.053 0.014,-0.102 -0.24,-0.434 -0.32,-0.553"
         style="fill:#6d6e71;fill-opacity:1;fill-rule:nonzero;stroke:none"
         id="path1366" />
    </g>
    <g
       id="g1368"
       transform="matrix(14.186812,0,0,-14.186812,774.12431,-2.5450761)">
      <path
         inkscape:connector-curvature="0"
         d="m 0,0 c 0.001,0.042 -0.184,0.048 -0.249,0.05 -0.589,0.017 -0.323,-0.274 -0.936,-0.255 0.236,0.341 0.46,0.523 0.959,0.77 C -0.057,0.547 0.106,0.534 0.275,0.528 0.985,0.507 1.536,0.637 1.846,0.98 1.522,0.941 1.191,0.922 0.852,0.932 0.111,0.954 -0.614,1.075 -1.355,1.097 -2.421,1.129 -3.749,0.985 -3.769,0.302 -3.777,0.053 -3.476,-0.141 -3,-0.155 c 0.443,-0.013 0.828,0.16 0.835,0.396 0.003,0.051 -0.036,0.126 -0.157,0.129 -0.323,0.01 -0.235,-0.272 -0.621,-0.26 -0.13,0.004 -0.217,0.075 -0.214,0.139 0.009,0.348 0.895,0.514 1.442,0.498 0.3,-0.009 0.598,-0.044 0.886,-0.095 -0.4,-0.194 -0.786,-0.385 -1.06,-0.634 -0.348,-0.317 -0.482,-0.463 -1.265,-0.439 -0.161,0.005 -0.233,0.011 -0.236,-0.092 -0.004,-0.133 0.228,-0.179 0.438,-0.185 0.121,-0.003 0.243,0.01 0.356,0.02 -0.196,-0.352 -0.719,-1.092 -1.565,-1.067 -0.324,0.01 -0.545,0.185 -0.54,0.343 0.012,0.43 1.052,0.351 1.057,0.476 0.003,0.141 -0.31,0.198 -0.528,0.204 -0.605,0.019 -1.101,-0.348 -1.108,-0.645 -0.014,-0.408 0.529,-0.656 1.269,-0.678 1.437,-0.043 2.049,0.965 2.559,1.508 l 0.249,0.006 c -0.058,-0.063 -0.193,-0.235 -0.194,-0.301 -0.002,-0.072 0.247,-0.075 0.344,-0.078 0.097,-0.003 0.122,0.004 0.155,0.051 0.186,0.274 0.483,0.51 0.782,0.75 C -0.075,-0.08 -0.002,-0.039 0,0"
         style="fill:#6d6e71;fill-opacity:1;fill-rule:nonzero;stroke:none"
         id="path1370" />
    </g>
    <g
       id="g1372"
       transform="matrix(14.186812,0,0,-14.186812,977.59724,88.234971)">
      <path
         inkscape:connector-curvature="0"
         d="M 0,0 C -0.335,0.279 -1.755,0.332 -1.97,0.393 -1.991,0.384 -2.004,0.391 -2.004,0.391 -2.243,0.369 -2.996,0.369 -3.285,0.544 -3.362,0.59 -3.407,0.656 -3.381,0.7 -3.193,1.014 -2.15,1.074 -2.08,1.192 -2.037,1.266 -2.365,1.454 -2.455,1.508 -2.649,1.624 -2.752,1.626 -2.895,1.59 -3.122,1.542 -4.019,1.238 -4.227,1.283 c -0.059,0.01 -0.116,0.039 -0.179,0.077 -0.07,0.041 -0.107,0.104 -0.086,0.137 0.074,0.126 1.332,0.358 1.367,0.417 0.027,0.044 -0.317,0.24 -0.366,0.269 -0.07,0.042 -0.138,0.083 -0.204,0.113 -0.148,0.076 -0.659,-0.07 -1.061,-0.236 l 0.119,0.04 c -0.187,-0.069 -0.69,-0.093 -0.986,0.035 -0.038,0.016 -0.071,0.039 -0.097,0.064 0.211,0.079 0.459,0.308 0.527,0.471 0.109,0.257 -0.245,0.577 -0.69,0.767 -0.741,0.317 -1.455,0.161 -1.789,-0.139 -0.309,-0.09 -0.912,-0.219 -1.123,-0.159 -0.109,0.031 -0.17,0.115 -0.155,0.168 0.089,0.315 1.122,0.47 1.182,0.689 0.031,0.104 -0.194,0.233 -0.364,0.281 -0.419,0.119 -0.706,0.025 -0.799,0.051 -0.132,0.037 -0.066,0.238 -0.324,0.31 -0.247,0.071 -0.527,0.033 -0.628,0.061 -0.101,0.028 0.016,0.085 -0.166,0.154 -0.076,0.03 -0.184,0.061 -0.262,0.083 -0.178,0.05 -0.278,0.056 -0.393,0.004 -0.101,-0.048 -0.456,-0.25 -0.802,-0.46 -0.206,-0.103 -0.784,-0.358 -1.101,-0.308 -0.104,0.017 -0.211,0.067 -0.201,0.127 0.039,0.242 1.205,0.854 1.226,0.994 0.008,0.055 -0.398,0.115 -0.479,0.128 -0.182,0.029 -0.308,0.009 -0.424,-0.051 -0.131,0.095 -0.445,0.187 -0.635,0.217 -0.957,0.151 -1.773,-0.417 -1.844,-0.862 -0.035,-0.225 0.131,-0.569 0.642,-0.649 0.296,-0.046 0.536,0.025 0.722,0.117 0.036,-0.132 0.156,-0.255 0.418,-0.296 0.295,-0.046 0.64,0.021 0.954,0.12 -0.035,-0.028 -0.057,-0.048 -0.059,-0.059 -0.028,-0.099 0.324,-0.216 0.464,-0.256 0.109,-0.031 0.142,0 0.194,0.035 0.211,0.123 1.219,0.727 1.545,0.635 0.039,-0.011 0.089,-0.043 0.083,-0.064 -0.037,-0.128 -1.102,-0.491 -1.142,-0.633 -0.021,-0.078 0.301,-0.24 0.425,-0.276 0.187,-0.052 1.333,0.745 1.675,0.649 C -8.981,4.03 -8.941,3.991 -8.95,3.963 -8.973,3.877 -9.757,3.651 -9.835,3.379 -9.882,3.213 -9.596,3.065 -9.332,2.992 -8.833,2.85 -8.255,2.954 -7.835,3.077 -7.949,2.8 -7.658,2.417 -7.127,2.19 -6.622,1.974 -6.236,2.014 -5.887,2.112 -5.835,2.071 -5.773,2.031 -5.706,2.002 -5.514,1.92 -5.311,1.885 -5.129,1.884 -5.209,1.84 -5.262,1.799 -5.281,1.769 -5.378,1.607 -5.277,1.416 -4.965,1.229 -4.708,1.075 -4.376,1.017 -4.143,0.982 -4.112,0.829 -3.987,0.598 -3.765,0.466 -3.333,0.207 -2.617,0.202 -2.21,0.217 -2.217,0.21 -2.226,0.203 -2.233,0.195 c -0.22,-0.264 -0.2,-0.632 0.358,-1.097 0.49,-0.408 1.238,-0.507 1.677,-0.56 l 0.126,0.152 c -0.218,0.015 -0.766,0.114 -1.007,0.215 0.149,0.066 0.265,0.169 0.365,0.288 0.129,0.155 0.147,0.391 0.273,0.542 0.159,0.192 0.386,-0.041 0.507,0.103 C 0.096,-0.125 0.068,-0.057 0,0 m -14.11,4.377 c -0.144,0.023 -0.182,0.095 -0.172,0.158 0.042,0.276 0.548,0.836 1.185,0.736 0.112,-0.019 0.257,-0.084 0.246,-0.152 -0.03,-0.195 -0.861,-0.804 -1.259,-0.742 M -5.772,2.936 -5.779,2.921 C -6.065,3.03 -6.228,2.936 -6.284,2.805 -6.325,2.71 -6.316,2.609 -6.26,2.492 -6.405,2.4 -6.719,2.343 -7.001,2.463 c -0.223,0.095 -0.241,0.238 -0.2,0.333 0.097,0.229 0.693,0.596 1.212,0.374 0.126,-0.055 0.247,-0.163 0.217,-0.234 m 4.746,-3.361 c -0.118,-0.142 -0.441,-0.365 -0.806,-0.06 -0.21,0.176 -0.264,0.338 -0.208,0.47 0.179,-0.088 0.3,-0.032 0.366,0.047 0.021,0.027 0.037,0.058 0.037,0.097 0.262,-0.028 0.517,-0.061 0.793,-0.146 -0.025,-0.157 -0.088,-0.295 -0.182,-0.408"
         style="fill:#6d6e71;fill-opacity:1;fill-rule:nonzero;stroke:none"
         id="path1374" />
    </g>
    <g
       id="g1376"
       transform="matrix(14.186812,0,0,-14.186812,792.70188,53.82344)">
      <path
         inkscape:connector-curvature="0"
         d="m 0,0 c -1.589,0.096 -2.215,-0.619 -3.216,-1.134 -0.468,-0.244 -0.948,-0.343 -1.206,-0.328 -0.407,0.025 -0.847,0.259 -1.207,0.713 l -0.083,0.103 -0.083,-0.103 c -0.361,-0.454 -0.8,-0.688 -1.207,-0.713 -0.259,-0.015 -0.739,0.084 -1.207,0.328 -1.001,0.515 -1.626,1.23 -3.216,1.134 -1.569,-0.094 -2.778,-1.126 -2.716,-2.177 0.047,-0.78 0.654,-1.192 1.895,-1.389 l 0.034,0.162 c -1.045,0.145 -1.632,0.59 -1.67,1.226 -0.042,0.685 0.614,1.251 1.582,1.309 0.815,0.049 1.511,-0.371 1.512,-0.404 0.002,-0.015 0.519,-0.385 1.384,-0.78 0.377,-0.185 0.835,-0.269 1.286,-0.242 0.883,0.053 1.758,0.5 2.406,1.292 0.648,-0.792 1.523,-1.239 2.405,-1.292 0.45,-0.027 0.909,0.057 1.286,0.242 0.866,0.395 1.382,0.765 1.384,0.78 0.002,0.033 0.696,0.453 1.512,0.404 0.967,-0.058 1.623,-0.624 1.583,-1.309 -0.039,-0.636 -0.626,-1.081 -1.67,-1.226 l 0.033,-0.162 c 1.241,0.197 1.848,0.609 1.894,1.389 C 2.778,-1.126 1.569,-0.094 0,0 m -8.108,-2.103 c -0.859,-0.052 -1.378,0.317 -2.16,0.798 -0.671,0.407 -1.185,0.68 -2.044,0.628 -0.279,-0.016 -0.577,-0.082 -0.913,-0.215 0.431,0.346 0.915,0.535 1.495,0.57 0.968,0.058 1.599,-0.4 2.447,-0.876 0.672,-0.392 1.245,-0.614 1.953,-0.571 0.13,0.008 0.279,0.033 0.47,0.06 -0.415,-0.248 -0.817,-0.368 -1.248,-0.394 m 8.995,1.426 c -0.859,0.052 -1.373,-0.221 -2.043,-0.628 -0.783,-0.481 -1.302,-0.85 -2.163,-0.798 -0.429,0.026 -0.831,0.146 -1.246,0.394 0.191,-0.027 0.342,-0.052 0.469,-0.06 0.71,-0.043 1.284,0.179 1.954,0.571 0.847,0.476 1.479,0.934 2.447,0.876 0.58,-0.035 1.064,-0.224 1.496,-0.57 -0.337,0.133 -0.635,0.199 -0.914,0.215"
         style="fill:#c41230;fill-opacity:1;fill-rule:nonzero;stroke:none"
         id="path1378" />
    </g>
    <g
       id="g1380"
       transform="matrix(14.186812,0,0,-14.186812,559.27492,367.04975)">
      <path
         inkscape:connector-curvature="0"
         d="M 0,0 -1.003,0.409 0.296,1.89 C 0.345,1.95 0.33,2.018 0.264,2.044 L 0.042,2.136 0.233,2.355 1.252,1.938 C 1.437,1.863 1.476,1.68 1.342,1.524 L 0,0 z"
         style="fill:#6d6e71;fill-opacity:1;fill-rule:nonzero;stroke:none"
         id="path1382" />
    </g>
    <g
       id="g1384"
       transform="matrix(14.186812,0,0,-14.186812,614.71278,378.98086)">
      <path
         inkscape:connector-curvature="0"
         d="M 0,0 C -0.113,-0.17 -0.362,-0.262 -0.548,-0.211 L -2.426,0.301 C -2.617,0.354 -2.678,0.53 -2.559,0.7 l 0.934,1.371 c 0.118,0.17 0.362,0.264 0.554,0.211 L 0.805,1.769 C 0.991,1.718 1.053,1.542 0.94,1.371 L 0,0 z m -0.233,1.768 -0.13,0.036 C -0.454,1.829 -0.582,1.781 -0.635,1.699 l -0.821,-1.2 c -0.058,-0.085 -0.027,-0.17 0.07,-0.196 l 0.124,-0.034 c 0.096,-0.026 0.217,0.017 0.277,0.102 l 0.819,1.201 c 0.053,0.081 0.023,0.172 -0.067,0.196"
         style="fill:#6d6e71;fill-opacity:1;fill-rule:nonzero;stroke:none"
         id="path1386" />
    </g>
    <g
       id="g1388"
       transform="matrix(14.186812,0,0,-14.186812,676.77009,365.37151)">
      <path
         inkscape:connector-curvature="0"
         d="M 0,0 -1.189,0.169 C -1.281,0.182 -1.403,0.119 -1.445,0.032 l -0.17,-0.329 1.206,-0.172 c 0.191,-0.026 0.273,-0.194 0.184,-0.373 l -0.377,-0.732 c -0.091,-0.184 -0.327,-0.307 -0.519,-0.28 l -1.925,0.273 c -0.197,0.029 -0.279,0.197 -0.183,0.38 l 0.754,1.478 c 0.097,0.182 0.327,0.306 0.525,0.278 L 0.132,0.258 0,0 z m -1.44,-0.6 -0.307,0.044 -0.36,-0.707 c -0.049,-0.091 -0.007,-0.172 0.091,-0.186 l 0.128,-0.018 c 0.098,-0.014 0.213,0.045 0.262,0.136 l 0.278,0.544 c 0.043,0.093 0.007,0.173 -0.092,0.187"
         style="fill:#6d6e71;fill-opacity:1;fill-rule:nonzero;stroke:none"
         id="path1390" />
    </g>
    <g
       id="g1392"
       transform="matrix(14.186812,0,0,-14.186812,681.39783,393.58056)">
      <path
         inkscape:connector-curvature="0"
         d="M 0,0 0.755,-0.042 0.966,0.468 0.211,0.51 0,0 z"
         style="fill:#6d6e71;fill-opacity:1;fill-rule:nonzero;stroke:none"
         id="path1394" />
    </g>
    <g
       transform="matrix(14.186812,0,0,-14.186812,-3113.0352,2019.7169)"
       id="g1396">
      <g
         id="g1398"
         clip-path="url(#clipPath1400)">
        <g
           id="g1404"
           transform="translate(272.2386,116.4828)">
          <path
             inkscape:connector-curvature="0"
             d="m 0,0 -1.412,-1.938 -1.119,-0.02 1.378,1.858 c 0.058,0.068 0.039,0.161 -0.055,0.159 l -1.195,-0.022 0.088,0.276 2.186,0.04 C 0.017,0.356 0.095,0.243 0.051,0.093 0.039,0.063 0.022,0.029 0,0"
             style="fill:#6d6e71;fill-opacity:1;fill-rule:nonzero;stroke:none"
             id="path1406" />
        </g>
        <g
           id="g1408"
           transform="translate(276.7177,117.2028)">
          <path
             inkscape:connector-curvature="0"
             d="M 0,0 -0.925,-0.152 C -1.017,-0.168 -1.113,-0.265 -1.127,-0.36 l -0.103,-0.574 0.886,0.145 -0.05,-0.286 -0.883,-0.146 -0.181,-1.039 -1.068,-0.175 0.342,2 c 0.038,0.204 0.221,0.391 0.418,0.424 L 0.054,0.288 0,0 z"
             style="fill:#6d6e71;fill-opacity:1;fill-rule:nonzero;stroke:none"
             id="path1410" />
        </g>
        <g
           id="g1412"
           transform="translate(281.2817,116.4927)">
          <path
             inkscape:connector-curvature="0"
             d="m 0,0 -0.977,-0.31 0.048,1.925 c 0.005,0.103 -0.068,0.159 -0.163,0.128 L -1.315,1.673 -1.37,-0.434 -2.352,-0.745 -2.303,1.18 c 0.004,0.104 -0.068,0.159 -0.163,0.129 l -0.223,-0.071 -0.053,-2.107 -0.983,-0.312 0.064,2.399 3.39,1.074 C -0.086,2.351 0.061,2.235 0.058,2.03 L 0,0 z"
             style="fill:#6d6e71;fill-opacity:1;fill-rule:nonzero;stroke:none"
             id="path1414" />
        </g>
        <g
           id="g1416"
           transform="translate(253.7569,128.0881)">
          <path
             inkscape:connector-curvature="0"
             d="m 0,0 -2.657,-1.046 1.053,-2.44 c 0.083,-0.175 0.33,-0.318 0.562,-0.318 l 1.213,0 -0.625,-2.725 -2.299,0 c -0.735,0 -1.5,0.444 -1.727,0.966 l -1.396,3.25 -2.496,-0.983 -0.731,-3.231 -3.762,0 2.678,11.694 3.74,0 -1.154,-5.04 5.032,1.965 c 0.223,0.079 0.408,0.301 0.449,0.491 L -1.528,5.167 2.213,5.166 1.371,1.442 C 1.235,0.792 0.705,0.269 0,0"
             style="fill:#6d6e71;fill-opacity:1;fill-rule:nonzero;stroke:none"
             id="path1418" />
        </g>
        <g
           id="g1420"
           transform="translate(282.3712,133.2517)">
          <path
             inkscape:connector-curvature="0"
             d="m 0,0 -9.584,0.001 c -0.736,0 -1.443,-0.443 -1.553,-0.966 l -2.129,-9.445 c -0.168,-0.746 0.46,-1.284 1.448,-1.284 l 9.626,-0.002 c 0.736,0 1.421,0.444 1.53,0.967 L 1.492,-1.3 C 1.641,-0.587 0.987,0 0,0 m -2.674,-3.137 -1.243,-5.388 c -0.056,-0.238 -0.369,-0.444 -0.706,-0.444 l -3.992,0 c -0.315,0 -0.568,0.174 -0.509,0.412 l 1.244,5.372 c 0.057,0.238 0.366,0.476 0.724,0.476 l 4.014,-10e-4 c 0.315,0 0.526,-0.19 0.468,-0.427"
             style="fill:#6d6e71;fill-opacity:1;fill-rule:nonzero;stroke:none"
             id="path1422" />
        </g>
        <g
           id="g1424"
           transform="translate(296.636,133.251)">
          <path
             inkscape:connector-curvature="0"
             d="m 0,0 -9.583,0.001 c -0.736,0 -1.465,-0.444 -1.577,-0.967 l -2.16,-9.445 c -0.171,-0.744 0.476,-1.284 1.464,-1.284 l 5.716,-10e-4 0.326,-0.818 3.762,0 -0.325,0.818 0.126,0 c 0.734,0 1.443,0.444 1.554,0.967 L 1.487,-1.3 C 1.64,-0.587 0.988,0 0,0 m -2.705,-3.138 -1.163,-5.061 -3.661,0 0.302,-0.758 -0.901,-0.012 -0.538,0 c -0.315,0 -0.545,0.173 -0.487,0.413 l 1.242,5.371 c 0.058,0.238 0.409,0.475 0.745,0.475 l 3.995,0 c 0.314,0 0.525,-0.19 0.466,-0.428"
             style="fill:#6d6e71;fill-opacity:1;fill-rule:nonzero;stroke:none"
             id="path1426" />
        </g>
        <g
           id="g1428"
           transform="translate(268.1565,133.2541)">
          <path
             inkscape:connector-curvature="0"
             d="m 0,0 -10.657,-0.001 -2.669,-11.696 3.741,0 0.656,2.838 2.417,0.95 1.214,-2.82 c 0.226,-0.524 0.987,-0.967 1.724,-0.967 l 2.687,10e-4 0.626,2.725 -1.594,0 c -0.252,0 -0.499,0.143 -0.581,0.317 l -0.851,2.013 2.761,1.077 c 0.665,0.254 1.197,0.777 1.337,1.411 l 0.676,2.851 C 1.661,-0.586 0.987,0 0,0 M -2.677,-3.012 C -2.722,-3.17 -2.85,-3.36 -3.251,-3.518 l -4.895,-1.934 0.623,2.741 4.331,0 c 0.335,0 0.577,-0.094 0.515,-0.301"
             style="fill:#6d6e71;fill-opacity:1;fill-rule:nonzero;stroke:none"
             id="path1430" />
        </g>
        <g
           id="g1432"
           transform="translate(243.4887,133.1386)">
          <path
             inkscape:connector-curvature="0"
             d="m 0,0 -2.621,-11.53 0.519,-0.03 c 0,0 2.479,10.834 2.57,11.233 0.339,0 2.681,-0.001 3.199,-0.001 C 3.536,-0.9 2.474,-5.53 2.474,-5.53 l 5.498,2.145 c 0.287,0.103 0.547,0.391 0.611,0.683 0,-10e-4 0.405,1.765 0.543,2.374 0.375,0 3.233,0 3.233,0 L 12.436,0.128 8.681,0.129 8.068,-2.584 c -0.023,-0.103 -0.143,-0.251 -0.279,-0.3 -0.007,-0.002 -3.836,-1.513 -5.082,-2 0.171,0.746 0.221,0.827 1.198,5.09 L 0.048,0.207 0,0 z"
             style="fill:#ffffff;fill-opacity:1;fill-rule:nonzero;stroke:none"
             id="path1434" />
        </g>
        <g
           id="g1436"
           transform="translate(247.8763,125.6764)">
          <path
             inkscape:connector-curvature="0"
             d="m 0,0 1.457,-3.373 c 0.759,-0.88 1.848,-0.655 1.848,-0.655 -0.679,0 -1.316,0.418 -1.486,0.808 L 0.362,0.151 0,0 z"
             style="fill:#ffffff;fill-opacity:1;fill-rule:nonzero;stroke:none"
             id="path1438" />
        </g>
        <g
           id="g1440"
           transform="translate(250.945,126.9937)">
          <path
             inkscape:connector-curvature="0"
             d="m 0,0 1.126,-2.585 c 0.179,-0.331 0.001,-0.556 1.736,-0.556 0.004,0.004 0.121,0.433 0.121,0.433 -0.147,0 -1.664,0.065 -1.694,0.132 L 0.239,-0.145 0,0 z"
             style="fill:#ffffff;fill-opacity:1;fill-rule:nonzero;stroke:none"
             id="path1442" />
        </g>
        <g
           id="g1444"
           transform="translate(285.3951,132.1638)">
          <path
             inkscape:connector-curvature="0"
             d="m 0,0 c 0.001,0.004 -2.159,-9.44 -2.159,-9.44 -0.023,-0.099 -0.034,-0.196 -0.034,-0.291 0,-0.262 0.195,-0.333 0.356,-0.54 0.302,-0.384 0.742,-0.411 1.4,-0.412 0,0 4.541,0.113 5.481,0.113 0.082,-0.212 0.424,-0.907 0.424,-0.907 l 3.808,-0.002 c -0.265,0.437 -0.236,0.532 -0.349,0.815 0.761,0.092 1.294,0.301 1.591,0.861 -0.002,-0.006 2.182,9.352 2.182,9.352 0,0 0.155,0.699 -0.074,0.985 -0.314,0.395 -0.576,0.58 -1.22,0.58 l -9.6,0 C 0.934,1.114 0.138,0.65 0,0 m 5.523,-10.687 -0.066,0.169 -5.894,0 c -0.489,0 -0.899,0.151 -1.096,0.403 -0.089,0.113 -0.133,0.239 -0.133,0.381 0,0.056 0.008,0.114 0.021,0.173 0,10e-4 2.16,9.445 2.16,9.445 0.076,0.361 0.657,0.76 1.319,0.76 l 9.584,0 c 0.477,-0.001 0.888,-0.159 1.098,-0.423 0.098,-0.121 0.147,-0.26 0.147,-0.407 0,-0.048 -0.005,-0.097 -0.016,-0.147 -0.002,-0.008 -2.182,-9.425 -2.182,-9.425 -0.077,-0.362 -0.648,-0.762 -1.298,-0.762 l -0.517,0 c 0,0 0.236,-0.593 0.325,-0.818 -0.594,10e-4 -2.904,10e-4 -3.192,10e-4 -0.085,0.212 -0.26,0.65 -0.26,0.65"
             style="fill:#ffffff;fill-opacity:1;fill-rule:nonzero;stroke:none"
             id="path1446" />
        </g>
        <g
           id="g1448"
           transform="translate(240.7551,121.4511)">
          <path
             inkscape:connector-curvature="0"
             d="m 0,0 3.986,-0.001 c 0,0 0.713,3.151 0.738,3.261 C 4.822,3.299 6.891,4.113 7.068,4.183 7.145,4 8.422,1.031 8.422,1.031 8.668,0.461 9.488,-0.002 10.249,-0.003 l 2.386,0 0.674,2.947 -1.35,0 c -0.186,0 -0.398,0.116 -0.462,0.254 0,0 -0.805,1.865 -1.006,2.332 0.194,0.076 2.551,1.005 2.551,1.005 0.76,0.29 1.298,0.859 1.438,1.52 l 0.871,3.858 -3.965,10e-4 -0.611,-2.669 C 10.744,9.1 10.589,8.902 10.397,8.833 10.394,8.832 6.462,7.297 5.553,6.941 c 0.085,0.374 1.139,4.973 1.139,4.973 l -3.965,0 L 0,0 z m 2.901,11.694 c 0.158,0 3.269,0 3.518,0 C 6.36,11.439 5.247,6.587 5.247,6.587 l 5.226,2.039 c 0.24,0.086 0.462,0.331 0.516,0.571 0,0 0.471,2.061 0.571,2.496 l 3.518,0 c -0.057,-0.25 -0.81,-3.59 -0.81,-3.59 C 14.143,7.513 13.654,7.004 12.963,6.74 L 13.002,6.637 C 12.982,6.688 12.963,6.74 12.963,6.74 L 10.201,5.652 11.298,3.107 c 0.104,-0.22 0.388,-0.384 0.661,-0.384 l 1.076,0 C 12.982,2.487 12.496,0.37 12.461,0.218 l -2.212,0 c -0.682,0 -1.413,0.404 -1.628,0.901 L 7.184,4.464 4.536,3.422 c 0,0 -0.688,-3.04 -0.723,-3.202 -0.16,0 -3.29,0 -3.538,0.001 0.06,0.261 2.588,11.307 2.626,11.473"
             style="fill:#000000;fill-opacity:1;fill-rule:nonzero;stroke:none"
             id="path1450" />
        </g>
        <g
           id="g1452"
           transform="translate(271.1543,132.1646)">
          <path
             inkscape:connector-curvature="0"
             d="m 0,0 c 0,0.004 -2.096,-9.43 -2.096,-9.43 -0.084,-0.372 0.057,-0.594 0.332,-0.823 0.315,-0.262 0.702,-0.412 1.351,-0.373 l 9.616,0 c 0.519,0 1.073,0.262 1.387,0.822 0,-0.005 2.126,9.354 2.126,9.354 0,0 0.15,0.647 -0.237,1.007 -0.37,0.343 -0.441,0.62 -1.086,0.62 L 1.809,1.178 C 0.947,1.178 0.135,0.65 0,0 m -0.424,-10.517 c -0.487,0 -0.88,0.144 -1.078,0.395 -0.124,0.156 -0.162,0.346 -0.113,0.562 0,0.001 2.13,9.445 2.13,9.445 0.075,0.361 0.644,0.76 1.294,0.76 l 9.584,-0.002 c 0.478,0 0.889,-0.157 1.101,-0.422 0.098,-0.122 0.148,-0.262 0.148,-0.41 0,-0.047 -0.006,-0.096 -0.016,-0.144 -0.002,-0.009 -2.152,-9.425 -2.152,-9.425 -0.075,-0.363 -0.615,-0.76 -1.271,-0.76 l -0.002,0 -9.625,0.001 z"
             style="fill:#ffffff;fill-opacity:1;fill-rule:nonzero;stroke:none"
             id="path1454" />
        </g>
        <g
           id="g1456"
           transform="translate(280.0291,130.362)">
          <path
             inkscape:connector-curvature="0"
             d="m 0,0 c -0.134,0.171 -0.361,0.27 -0.623,0.27 l -0.33,0 c 0.49,-0.081 0.607,-0.427 0.607,-0.427 0,0 -0.208,-0.858 -0.452,-1.884 -0.231,-1.003 -0.513,-2.222 -0.688,-2.983 -0.034,-0.16 -0.059,-0.287 -0.071,-0.363 -0.015,-0.091 -0.038,-0.168 -0.067,-0.237 -0.019,-0.082 -0.03,-0.128 -0.03,-0.128 C -1.669,-5.814 -1.76,-5.898 -1.887,-5.947 -2.08,-6.078 -2.281,-6.08 -2.281,-6.08 l -3.571,-0.023 c -0.481,-0.021 -0.795,0.149 -1,0.368 -0.007,-0.03 -0.011,-0.049 -0.011,-0.049 -0.039,-0.16 -0.005,-0.323 0.1,-0.457 0.136,-0.176 0.387,-0.282 0.668,-0.282 l 3.992,-0.001 c 0.452,0 0.875,0.285 0.962,0.648 0.001,0.003 1.244,5.391 1.244,5.391 C 0.144,-0.313 0.107,-0.14 0,0"
             style="fill:#ffffff;fill-opacity:1;fill-rule:nonzero;stroke:none"
             id="path1458" />
        </g>
        <g
           id="g1460"
           transform="translate(271.1299,132.3092)">
          <path
             inkscape:connector-curvature="0"
             d="m 0,0 -2.131,-9.444 c -0.074,-0.329 -0.01,-0.634 0.186,-0.881 0.268,-0.341 0.767,-0.537 1.368,-0.537 l 9.626,-10e-4 c 0.781,0 1.516,0.473 1.636,1.054 l 2.153,9.427 c 0.067,0.314 -0.007,0.623 -0.206,0.872 -0.287,0.358 -0.794,0.563 -1.391,0.563 L 1.657,1.054 C 0.864,1.054 0.12,0.581 0,0 m -0.577,-10.642 c -0.533,0 -0.971,0.165 -1.199,0.454 -0.151,0.193 -0.2,0.434 -0.142,0.695 0,10e-4 2.13,9.446 2.13,9.446 0.098,0.479 0.76,0.88 1.445,0.88 l 9.584,0 c 0.531,0 0.976,-0.176 1.222,-0.482 0.158,-0.199 0.216,-0.436 0.162,-0.686 l -2.152,-9.427 c -0.099,-0.478 -0.751,-0.882 -1.424,-0.88 l -9.626,0 z"
             style="fill:#000000;fill-opacity:1;fill-rule:nonzero;stroke:none"
             id="path1462" />
        </g>
        <g
           id="g1464"
           transform="translate(274.3852,130.0931)">
          <path
             inkscape:connector-curvature="0"
             d="m 0,0 c 0,-0.001 -1.244,-5.373 -1.244,-5.373 -0.029,-0.114 -0.003,-0.23 0.069,-0.324 0.109,-0.14 0.312,-0.224 0.546,-0.224 l 3.992,0 c 0.384,0 0.741,0.233 0.813,0.528 0,0.002 1.243,5.389 1.243,5.389 l 0,-0.001 C 5.45,0.123 5.423,0.248 5.344,0.348 5.24,0.482 5.059,0.559 4.844,0.559 l -4.014,0 C 0.446,0.559 0.074,0.308 0,0 m -0.629,-5.701 c -0.161,0 -0.308,0.055 -0.374,0.139 -0.032,0.042 -0.043,0.087 -0.03,0.138 0,0.001 1.244,5.373 1.244,5.373 0.045,0.185 0.31,0.39 0.619,0.39 l 4.014,0 C 4.989,0.339 5.112,0.292 5.173,0.212 5.211,0.165 5.222,0.109 5.207,0.047 L 3.965,-5.342 C 3.922,-5.515 3.671,-5.701 3.363,-5.701 l -3.992,0 z"
             style="fill:#000000;fill-opacity:1;fill-rule:nonzero;stroke:none"
             id="path1466" />
        </g>
        <g
           id="g1468"
           transform="translate(294.2637,130.3599)">
          <path
             inkscape:connector-curvature="0"
             d="m 0,0 c -0.135,0.172 -0.36,0.271 -0.623,0.271 l -0.805,0 0.309,-0.013 c 1.074,-0.027 0.805,-0.7 0.805,-0.7 l -1.182,-4.866 -3.661,0 0.302,-0.758 -1.438,-0.012 -0.277,0.06 c -0.07,0.01 -0.182,0.097 -0.294,0.204 -0.03,-0.155 0.004,-0.309 0.102,-0.434 0.137,-0.174 0.371,-0.274 0.645,-0.274 l 0.539,0 c 0.003,0 1.288,0.017 1.288,0.017 0,0 -0.221,0.556 -0.299,0.753 l 3.48,0 1.21,5.268 C 0.144,-0.313 0.107,-0.14 0,0"
             style="fill:#ffffff;fill-opacity:1;fill-rule:nonzero;stroke:none"
             id="path1470" />
        </g>
        <g
           id="g1472"
           transform="translate(285.3704,132.3079)">
          <path
             inkscape:connector-curvature="0"
             d="m 0,0 -2.162,-9.443 c -0.019,-0.088 -0.029,-0.174 -0.029,-0.259 0,-0.226 0.071,-0.434 0.213,-0.614 0.273,-0.346 0.778,-0.546 1.387,-0.547 l 5.643,0 c 0.047,-0.116 0.326,-0.818 0.326,-0.818 l 3.996,-0.001 c 0,0 -0.247,0.623 -0.325,0.822 0.78,0.013 1.505,0.478 1.627,1.051 l 2.183,9.427 c 0.016,0.077 0.024,0.153 0.024,0.229 0,0.233 -0.078,0.455 -0.227,0.643 -0.287,0.358 -0.792,0.563 -1.39,0.563 L 1.682,1.054 C 0.891,1.054 0.121,0.571 0,0 m 5.2,-10.642 -5.791,0 c -0.542,0 -0.985,0.169 -1.216,0.463 -0.11,0.139 -0.166,0.303 -0.166,0.479 0,0.068 0.008,0.137 0.024,0.207 l 2.161,9.445 c 0.099,0.471 0.787,0.881 1.47,0.881 l 9.584,0 c 0.531,0 0.977,-0.175 1.22,-0.481 0.119,-0.15 0.18,-0.321 0.18,-0.503 0,-0.059 -0.007,-0.121 -0.02,-0.182 L 10.463,-9.76 c -0.099,-0.472 -0.776,-0.883 -1.449,-0.883 l -0.286,0 c 0,0 0.244,-0.617 0.325,-0.818 l -3.528,0 C 5.479,-11.345 5.2,-10.642 5.2,-10.642"
             style="fill:#000000;fill-opacity:1;fill-rule:nonzero;stroke:none"
             id="path1474" />
        </g>
        <g
           id="g1476"
           transform="translate(288.6184,130.0924)">
          <path
             inkscape:connector-curvature="0"
             d="m 0,0 c 0,-0.002 -1.241,-5.373 -1.241,-5.373 -0.029,-0.12 -0.004,-0.239 0.07,-0.334 0.106,-0.136 0.296,-0.214 0.523,-0.214 l 0.538,0 c 0,0 1.061,0.014 1.061,0.014 0,0 -0.223,0.563 -0.301,0.756 l 3.586,0 1.184,5.147 -0.001,-0.002 C 5.45,0.121 5.424,0.247 5.345,0.348 5.242,0.482 5.06,0.559 4.846,0.559 l -3.994,0 C 0.471,0.559 0.073,0.298 0,0 m -0.648,-5.701 c -0.155,0 -0.289,0.05 -0.351,0.13 -0.034,0.044 -0.044,0.091 -0.03,0.146 0,0.002 1.241,5.374 1.241,5.374 0.043,0.176 0.338,0.389 0.64,0.389 l 3.994,0 c 0.145,0 0.267,-0.047 0.329,-0.126 0.026,-0.034 0.04,-0.072 0.04,-0.113 0,-0.017 -0.003,-0.034 -0.008,-0.052 0,0 -1.107,-4.813 -1.145,-4.978 -0.164,0 -3.734,0.001 -3.734,0.001 0,0 0.226,-0.568 0.302,-0.76 -0.216,-0.003 -0.742,-0.011 -0.742,-0.011 l -0.536,0 z"
             style="fill:#000000;fill-opacity:1;fill-rule:nonzero;stroke:none"
             id="path1478" />
        </g>
        <g
           id="g1480"
           transform="translate(262.8984,122.4189)">
          <path
             inkscape:connector-curvature="0"
             d="m 0,0 c 0.272,-0.631 1.001,-0.787 1.861,-0.911 0.205,-0.031 -0.008,0 2.535,0.001 L 5.144,1.955 3.218,1.927 c -0.164,0 -0.31,0.096 -0.343,0.166 0,0 -0.622,1.576 -0.849,2.113 0.419,0.164 2.867,1.006 2.867,1.006 0,0 1.012,0.543 1.166,1.236 -0.001,-0.004 0.674,2.848 0.674,2.848 0.086,0.351 0.162,0.647 -0.06,0.934 -0.315,0.404 -0.579,0.695 -1.239,0.695 l -10.657,-0.001 -0.21,0 -2.629,-11.682 0.502,-0.014 c 0.138,0.607 2.459,10.774 2.548,11.162 0.404,0 10.446,10e-4 10.446,10e-4 0.489,0 0.907,-0.162 1.117,-0.433 C 6.64,9.843 6.685,9.717 6.685,9.582 6.685,9.53 6.678,9.477 6.665,9.423 6.664,9.42 5.989,6.568 5.989,6.568 5.874,6.045 5.424,5.577 4.815,5.346 l -0.001,0 L 1.797,4.167 2.756,1.9 C 2.889,1.618 3.233,1.421 3.579,1.421 c 0,0 0.796,10e-4 1.262,10e-4 C 4.734,0.958 4.408,-0.463 4.338,-0.77 c -0.357,0 -2.477,-0.001 -2.477,-0.001 -0.679,0 -1.314,0.417 -1.482,0.807 L -0.934,3.092 -1.334,2.924 0,0 z"
             style="fill:#ffffff;fill-opacity:1;fill-rule:nonzero;stroke:none"
             id="path1482" />
        </g>
        <g
           id="g1484"
           transform="translate(265.8464,130.3823)">
          <path
             inkscape:connector-curvature="0"
             d="m 0,0 c -0.124,0.166 -0.36,0.251 -0.706,0.251 l -1.17,0 0.048,-0.015 c 1.982,0.11 1.355,-0.544 1.355,-0.544 -0.041,-0.068 -0.132,-0.167 -0.387,-0.267 0,0 -1.069,-0.419 -2.23,-0.875 l -2.181,-0.952 -0.613,-0.148 -0.145,-0.64 5.36,2.118 c 0.408,0.16 0.647,0.383 0.733,0.68 C 0.105,-0.252 0.083,-0.112 0,0"
             style="fill:#ffffff;fill-opacity:1;fill-rule:nonzero;stroke:none"
             id="path1486" />
        </g>
        <g
           id="g1488"
           transform="translate(257.4127,133.363)">
          <path
             inkscape:connector-curvature="0"
             d="m 0,0 -2.72,-11.916 3.965,0.001 c 0,0 0.638,2.758 0.663,2.866 0.098,0.038 2.09,0.821 2.266,0.891 0.078,-0.181 1.171,-2.724 1.171,-2.724 0.245,-0.569 1.063,-1.033 1.825,-1.033 l 2.773,0 0.676,2.947 -1.73,-10e-4 c -0.224,0 -0.426,0.132 -0.483,0.255 0.002,-0.004 -0.632,1.494 -0.805,1.903 0.195,0.076 2.656,1.036 2.656,1.036 0.723,0.277 1.262,0.847 1.404,1.49 0.001,0 0.675,2.851 0.675,2.851 0.02,0.081 0.03,0.164 0.03,0.245 0,0.22 -0.073,0.431 -0.214,0.613 -0.279,0.361 -0.806,0.577 -1.408,0.577 L 0,0 z m 10.744,-0.219 0,0 c 0.535,0 0.999,-0.184 1.238,-0.493 0.152,-0.197 0.202,-0.429 0.142,-0.67 0,-0.001 -0.675,-2.854 -0.675,-2.854 -0.127,-0.573 -0.613,-1.082 -1.27,-1.332 -10e-4,0 -2.868,-1.119 -2.868,-1.119 L 8.207,-8.805 C 8.312,-9.029 8.6,-9.19 8.889,-9.19 c 0,0 1.07,10e-4 1.456,10e-4 -0.054,-0.236 -0.541,-2.353 -0.575,-2.505 -0.162,0 -2.6,0 -2.6,0 -0.683,0 -1.412,0.403 -1.625,0.9 L 4.29,-7.876 1.722,-8.886 c 0,0 -0.613,-2.649 -0.65,-2.809 l -3.517,0 c 0.059,0.261 2.581,11.309 2.618,11.475 0.171,0 10.571,0.001 10.571,0.001"
             style="fill:#000000;fill-opacity:1;fill-rule:nonzero;stroke:none"
             id="path1490" />
        </g>
        <g
           id="g1492"
           transform="translate(260.5477,130.6536)">
          <path
             inkscape:connector-curvature="0"
             d="m 0,0 -0.69,-3.03 5.087,2.009 c 0.359,0.141 0.568,0.331 0.64,0.578 0.011,0.034 0.014,0.065 0.014,0.093 0,0.072 -0.026,0.126 -0.052,0.162 C 4.883,-0.032 4.618,0 4.416,0 L 0,0 z m 4.416,-0.22 c 0.246,0 0.373,-0.054 0.407,-0.1 0.006,-0.007 0.01,-0.016 0.01,-0.03 0,-0.008 -0.002,-0.018 -0.005,-0.03 l 0,-0.001 c -0.02,-0.065 -0.077,-0.263 -0.51,-0.435 0,0 -3.806,-1.504 -4.703,-1.858 0.076,0.337 0.525,2.305 0.559,2.453 0.165,0 4.242,0.001 4.242,0.001 m 0.621,-0.223 0.001,0.001 C 5.037,-0.443 5.037,-0.443 5.037,-0.443"
             style="fill:#000000;fill-opacity:1;fill-rule:nonzero;stroke:none"
             id="path1494" />
        </g>
      </g>
    </g>
  </g>
</svg>
